PathFileType	4	(X/Y/Z)	C:/Users/beibeiliu/ov580/test_trc/User3\sequence.26_training_dense_left.trc
DataRate	CameraRate	NumFrames	NumMarkers	Units	OrigDataRate	OrigDataStartFrame	OrigNumFrames
120	120	23	19	mm	120	200	266
Frame#	Time	ThumbCMC			ThumbMCP			ThumbIP			ThumbTip			IndexMCP			IndexPIP			IndexTip			MiddleMCP			MiddlePIP			MiddleTip			RingMCP			RingPIP			RingTip			PinkyMCP			PinkyPIP			PinkyTip			BackHand1			BackHand2			BackHand3	
		X0	Y0	Z0	X1	Y1	Z1	X2	Y2	Z2	X3	Y3	Z3	X4	Y4	Z4	X5	Y5	Z5	X6	Y6	Z6	X7	Y7	Z7	X8	Y8	Z8	X9	Y9	Z9	X10	Y10	Z10	X11	Y11	Z11	X12	Y12	Z12	X13	Y13	Z13	X14	Y14	Z14	X15	Y15	Z15	X16	Y16	Z16	X17	Y17	Z17	X18	Y18	Z18	
199	1.65833	-155.185	-3.6902	21.995	-143.458	0.272954	-8.65748	-145.544	5.51718	-41.3983	-160.742	4.56117	-58.2051	-150.543	47.232	-36.9823	-139.897	55.4182	-55.8452	-131.997	68.6981	-75.9002	-166.782	34.7536	-54.2817	-159.144	26.3172	-77.8966	-147.737	10.9197	-105.023	-181.181	5.94419	-48.0257	-170.257	-23.0659	-49.075	-169.175	-38.9446	-18.8765	-195.808	-8.6405	-44.5271	-181.903	-25.9485	-35.5223	-180.763	-30.6245	-5.72514	-202.11	25.9238	-1.45223	-213.193	11.6019	28.0241	-174.669	26.8758	24.2335	
200	1.66667	-157.148	-5.8728	17.2472	-147.57	-4.61635	-13.9925	-151.259	-3.67625	-46.1304	-171.795	-6.09631	-61.4897	-158.744	35.2087	-49.9853	-148.311	40.9803	-67.9553	-141.374	50.9241	-92.2028	-179.399	18.8917	-60.3687	-163.704	8.22257	-89.4171	-156.882	-14.5794	-110.706	-187.127	-6.65393	-50.8041	-177.202	-37.2763	-50.8801	-170.876	-47.6959	-17.6349	-202.408	-18.7982	-44.5215	-186.946	-39.2099	-33.4426	-183.738	-39.0114	-1.64797	-211.097	15.1677	-5.73494	-218.502	5.94881	23.8062	-184.885	19.4926	18.666	
201	1.675	-158.343	-7.17856	13.9189	-145.456	-11.2266	-15.8542	-153.096	-12.8408	-45.6822	-172.363	-19.3445	-64.3586	-165.838	21.6977	-55.7611	-157.352	27.5696	-82.1423	-151.938	32.1836	-101.98	-180.783	6.28953	-67.5117	-169.945	-11.3771	-93.5794	-159.948	-35.3716	-111.202	-193.416	-24.5583	-55.3986	-180.313	-52.0765	-45.5401	-174.581	-55.3074	-11.9321	-205.837	-33.9189	-45.1882	-188.306	-51.7255	-27.8531	-186.077	-43.7697	-1.35015	-214.731	8.77555	-14.6152	-218.67	3.31832	21.6359	-187.299	17.2963	12.6996	
202	1.68333	-160.45	-9.01729	15.7677	-154.046	-12.7852	-18.4104	-157.314	-19.7928	-47.4619	-173.143	-30.9251	-66.2281	-167.288	13.6069	-58.1487	-160.043	17.6845	-85.8061	-159.099	18.0862	-108.607	-183.814	-5.73764	-68.7111	-171.072	-24.4989	-94.628	-163.835	-50.6448	-108.889	-190.927	-31.6892	-54.1575	-177.149	-57.1599	-46.4044	-171.333	-60.8726	-13.3613	-203.626	-44.2443	-43.031	-189.383	-57.8605	-28.6672	-184.206	-49.3004	0.956172	-215.036	1.63332	-17.7723	-220.903	2.18586	16.147	-189.56	13.1411	3.03328	
203	1.69167	-161.817	-7.29328	11.2641	-151.431	-16.3786	-21.0843	-156.303	-26.9929	-49.9434	-175.039	-38.6555	-61.4613	-172.522	5.34121	-62.4335	-163.045	8.1136	-85.2547	-162.315	7.04666	-111.685	-186.612	-16.6317	-68.9294	-172.793	-35.0334	-91.3921	-158.275	-60.8605	-105.27	-195.081	-42.0153	-51.2816	-174.54	-65.4691	-38.216	-170.658	-65.6817	-5.35023	-207.286	-49.0117	-40.5451	-186.305	-62.488	-23.8453	-181.616	-52.1058	0.0881194	-220.418	-6.27946	-19.9096	-228.047	-3.9428	15.0386	-190.141	11.4253	0.994063	
204	1.7	-166.847	-8.41288	11.4249	-152.31	-18.2813	-18.7415	-156.097	-32.1068	-42.4615	-174.285	-47.6158	-60.9097	-169.543	-0.11587	-66.8912	-167.204	-3.66409	-89.8986	-162.121	-3.89567	-115.278	-188.3	-26.7906	-69.0988	-174.82	-44.0861	-87.0229	-159.886	-72.665	-99.2473	-191.571	-46.7919	-49.3727	-172.865	-70.2574	-34.1277	-168.213	-69.7205	-5.31889	-206.383	-56.1787	-38.3362	-185.597	-67.5195	-21.4645	-180.576	-56.7505	5.2131	-219.134	-9.16307	-18.96	-225.355	-5.42046	13.1234	-195.39	9.47398	0.304946	
205	1.70833	-163.215	-7.23358	10.9417	-150.233	-21.549	-14.1353	-155.364	-37.5473	-44.0623	-166.978	-54.2145	-58.7824	-171.042	-6.02183	-62.8863	-161.339	-7.49028	-89.1872	-160.484	-10.9104	-112.634	-182.99	-30.3498	-68.4346	-171.478	-52.3746	-84.5414	-152.066	-80.2566	-94.3282	-189.976	-55.9936	-47.694	-171.378	-74.9416	-30.6796	-161.984	-70.1585	-3.33371	-198.974	-61.6356	-37.0168	-182.654	-70.0486	-18.3336	-174.195	-57.6908	4.29839	-220.181	-11.9708	-20.4595	-230.044	-10.643	12.1342	-197.833	6.38746	-1.26509	
206	1.71667	-164.779	-8.82727	10.3065	-150.031	-24.7067	-13.3927	-151.783	-41.9084	-39.3483	-163.478	-60.6862	-57.8755	-171.186	-10.8106	-64.2442	-159.62	-12.3742	-90.5971	-156.05	-14.9099	-112.798	-178.34	-35.3017	-68.0592	-166.02	-58.1766	-81.9478	-143.592	-81.9041	-87.7052	-187.992	-56.6888	-45.304	-166.021	-75.1534	-29.7284	-161.484	-70.4535	3.7488	-199.806	-63.1381	-33.8073	-177.779	-70.6211	-16.2146	-169.352	-55.4311	9.07018	-218.344	-15.4151	-21.4579	-230.254	-11.7221	12.4736	-194.72	5.20777	-4.34301	
207	1.725	-165.287	-8.15536	13.1109	-146.581	-25.868	-10.4188	-144.725	-43.936	-37.8077	-151.937	-63.0859	-53.2334	-166.09	-12.2759	-65.2763	-155.843	-15.4084	-86.8452	-151.774	-20.4444	-109.498	-175.126	-39.3251	-67.0116	-158.798	-59.6767	-79.2969	-135.809	-87.4754	-79.7681	-178.819	-56.8151	-43.9058	-164.351	-77.1155	-26.8168	-155.76	-70.3819	3.06065	-193.863	-69.623	-30.424	-174.359	-74.8368	-12.145	-169.396	-58.8241	13.3209	-216.114	-19.1364	-20.6538	-228.065	-12.6584	7.74911	-196.555	3.89008	-1.53674	
208	1.73333	-164.861	-6.98996	16.289	-147.789	-24.196	-8.63086	-138.553	-43.0291	-33.7	-147.297	-64.6065	-50.663	-164.024	-15.6319	-63.283	-150.454	-16.9672	-86.5242	-145.818	-24.6589	-107.36	-172.323	-40.0174	-63.9212	-149.925	-61.9029	-74.2442	-126.605	-91.147	-65.2281	-178.431	-60.977	-41.1788	-154.343	-74.2232	-21.1166	-152.023	-67.9427	10.3525	-186.521	-67.7022	-30.3604	-167.686	-71.7322	-8.38188	-164.351	-60.6771	12.3821	-214.635	-22.0996	-18.9632	-227.765	-15.9926	8.87865	-197.491	1.56046	-3.23237	
209	1.74167	-165.762	-4.52411	17.4747	-145.153	-19.3812	-3.01771	-136.981	-38.8932	-32.2194	-141.526	-57.897	-45.7919	-160.127	-13.9179	-57.7892	-147.277	-21.0754	-82.1023	-139.045	-30.4374	-104.932	-167.702	-41.744	-61.3448	-141.597	-63.8698	-68.5737	-115.695	-82.8928	-49.0957	-170.784	-57.7794	-38.747	-148.689	-72.5625	-20.103	-147.096	-63.6959	14.1776	-182.329	-70.5003	-25.2971	-164.287	-73.2969	-4.05961	-161.623	-54.276	19.0488	-213.502	-24.6556	-20.09	-223.239	-16.1115	5.01821	-198.889	2.74132	-2.48439	
210	1.75	-167.446	0.69059	15.0195	-145.01	-13.7943	-2.05179	-135.322	-31.8924	-26.3521	-134.426	-53.3972	-43.1063	-153.579	-11.7741	-59.5255	-138.826	-18.8771	-80.9213	-130.473	-30.5502	-98.2097	-157.493	-40.7634	-58.5633	-132.261	-56.0957	-61.2127	-107.81	-76.037	-32.8143	-162.926	-59.6021	-33.0098	-141.169	-66.35	-14.8291	-141.793	-56.8855	17.4421	-174.656	-71.3329	-21.8312	-155.403	-68.7006	0.826406	-155.864	-48.8289	21.4179	-210.9	-25.4363	-18.5001	-225.265	-21.1964	10.2728	-196.621	2.11334	-5.97982	
211	1.75833	-172.179	4.79441	16.4581	-146.686	-5.72208	-3.91179	-129.196	-22.157	-24.9371	-127.288	-42.7439	-34.5443	-150.676	-9.22146	-58.6643	-136.17	-16.9844	-75.3489	-120.711	-28.0106	-95.8117	-150.965	-38.0615	-53.7459	-121.555	-47.7187	-55.1027	-93.4704	-61.3494	-28.0479	-149.307	-56.0989	-27.9324	-129.3	-57.7448	-4.83376	-135.703	-44.5762	25.7131	-158.296	-66.1722	-15.9151	-145.575	-59.7469	4.61826	-150.246	-40.5607	25.2146	-206.049	-34.668	-20.2195	-221.663	-28.6954	6.13826	-199.613	3.33731	-7.62654	
212	1.76667	-177.449	17.5287	12.6496	-147.688	14.3053	-2.13773	-128.515	-5.35661	-22.6901	-121.106	-27.6566	-28.5301	-149.931	-3.3818	-57.1222	-133.184	-5.40157	-73.7168	-114.67	-11.2366	-91.4771	-142.609	-24.2981	-48.6439	-110.669	-33.3049	-47.8793	-78.7904	-31.1759	-29.0848	-140.432	-41.9761	-24.0359	-119.503	-36.1396	1.10708	-125.972	-26.2078	27.0907	-149.341	-54.739	-11.7436	-134.591	-43.28	10.792	-148.571	-29.3311	31.0485	-198.445	-38.561	-16.3941	-219.094	-34.0615	8.20649	-201.48	-4.80519	-8.55208	
213	1.775	-186.318	20.3001	13.133	-153.426	27.8441	-3.32866	-132.066	11.6204	-20.8553	-116.38	-11.8235	-28.2516	-148.515	5.81519	-57.909	-131.934	9.96563	-73.2263	-114.485	5.02246	-87.417	-131.866	-13.7949	-46.3244	-106.851	-10.7257	-45.7644	-74.8969	-6.61513	-31.9368	-132.762	-27.447	-20.0581	-113.534	-15.4106	2.74088	-120.561	-2.89822	28.7028	-137.018	-37.956	-6.57178	-128.451	-21.5085	14.29	-145.532	-8.87765	35.6768	-189.467	-36.6325	-15.6701	-210.183	-35.0834	8.71806	-203.795	0.0793686	-8.1943	
214	1.78333	-190.85	27.8369	11.0324	-159.969	34.3638	-6.69807	-135.064	23.551	-21.5471	-119.546	5.8829	-24.1159	-151.711	17.0521	-57.8426	-133.702	19.7708	-72.2506	-113.735	23.4745	-90.1951	-135.036	-1.97771	-44.8936	-103.54	8.94773	-45.7272	-73.8871	18.4729	-34.9139	-130.139	-14.7181	-17.6507	-112.648	-1.70993	2.40774	-122.664	11.8905	32.4944	-132.225	-25.6972	-4.24395	-126.218	-7.23321	18.186	-144.599	4.70504	38.3493	-185.438	-29.1904	-17.5184	-206.68	-29.4865	8.25416	-204.919	0.0894508	-10.9488	
215	1.79167	-193.02	30.9515	9.62431	-165.996	41.4693	-6.5264	-139.286	32.9352	-21.3622	-122.266	17.8656	-24.0858	-156.797	21.9247	-53.3038	-138.881	27.5508	-71.4778	-120.375	31.5902	-87.9575	-132.502	5.03158	-43.8536	-109.154	16.6506	-45.3334	-75.1258	31.4627	-36.5671	-127.403	-0.956354	-17.4414	-113.724	9.18035	4.39733	-123.406	25.2704	30.0051	-128.93	-15.6439	-1.46804	-124.637	1.99885	16.2177	-141.799	16.5178	37.7095	-182.683	-25.1493	-13.6714	-208.356	-25.4733	8.76423	-204.719	4.34621	-12.9882	
216	1.8	-199.223	34.0233	12.8524	-168.697	43.8251	-7.27046	-143.725	40.4713	-21.0168	-124.369	22.3455	-26.2963	-160.026	26.8588	-55.0812	-140.227	33.2834	-74.9923	-125.35	38.206	-90.5012	-138.98	12.9492	-44.6324	-108.706	24.9809	-46.8869	-78.7936	36.9761	-35.4284	-133.331	2.34322	-17.7966	-116.412	17.7787	5.01429	-128.828	32.7716	31.3381	-131.498	-7.92674	-3.52945	-125.75	8.29242	15.4163	-142.215	24.0853	35.7298	-185.351	-19.087	-15.3273	-204.735	-25.4643	9.2527	-206.416	6.14869	-10.7243	
217	1.80833	-199.808	38.7378	8.02332	-170.92	46.1922	-7.42263	-146.648	42.8419	-19.21	-127.285	26.0263	-25.4746	-161.988	30.0493	-56.667	-146.61	34.6356	-72.0183	-129.328	42.1623	-91.5262	-136.505	15.0519	-45.5764	-112.643	27.0217	-46.4039	-82.7913	40.7744	-37.2976	-132.697	6.72591	-16.7259	-118.755	19.0364	4.59367	-134.2	35.8346	31.8684	-135.592	-8.02694	-2.85547	-127.151	8.74184	17.8781	-146.857	24.8846	35.8505	-187.451	-17.8662	-15.5992	-207.898	-22.7563	10.6536	-208.788	7.21959	-10.8809	
218	1.81667	-202.204	36.9605	7.20445	-175.326	46.6705	-6.61832	-149.288	41.8595	-23.4034	-127.973	26.7061	-28.8226	-166.052	28.1288	-56.8897	-150.192	33.7293	-73.7363	-133.948	40.7143	-94.5135	-140.276	12.2831	-47.0921	-116.611	23.8139	-47.2536	-85.3752	41.3348	-39.101	-137.605	3.9499	-18.6257	-122.595	23.5772	3.23658	-135.016	32.7235	28.9022	-137.554	-10.352	-3.79409	-132.069	13.4232	13.5325	-148.93	26.5861	33.9628	-190.159	-18.7971	-15.594	-210.1	-25.4057	7.88958	-214.338	5.33685	-11.0709	
219	1.825	-206.037	35.3338	6.93208	-179.086	47.5174	-9.3965	-151.575	40.3681	-28.8788	-133.354	27.0751	-30.2936	-172.199	26.7851	-59.2726	-155.864	30.9884	-77.4001	-138.274	38.5698	-100.244	-147.389	12.2002	-48.2938	-120.666	22.3631	-50.8174	-91.0156	39.9708	-44.3941	-138.26	6.94208	-20.1446	-127.426	23.7925	-2.54184	-140.036	35.3126	27.9295	-142.056	-6.00624	-7.97749	-133.455	10.4418	11.8099	-150.095	25.6356	28.4592	-191.194	-19.6284	-15.658	-213.966	-24.4112	6.24406	-214.701	4.55588	-13.2361	
220	1.83333	-210.918	35.1704	5.35053	-183.675	45.2223	-12.5067	-157.304	43.2453	-30.2812	-137.722	24.0969	-35.7678	-176.61	23.4105	-61.8317	-161.343	30.5748	-83.2406	-149.604	35.5343	-102.193	-154.476	12.7224	-52.0534	-126.785	26.0841	-57.3594	-96.235	44.7197	-51.9064	-141.631	6.28662	-23.9077	-129.944	21.6701	-4.00356	-142.072	35.1466	22.1262	-140.105	-5.30631	-8.19123	-136.306	12.2059	7.52739	-155.296	27.8865	25.9323	-191.724	-23.5976	-16.5552	-213.697	-23.6009	5.74397	-219.04	4.25546	-15.2912	
221	1.84167	-214.817	34.0842	2.69511	-186.137	42.8099	-17.7773	-160	37.6343	-36.4279	-139.824	22.4541	-41.7888	-181.183	18.9397	-63.9451	-168.127	25.5403	-83.9744	-154.738	30.2955	-106.459	-157.754	10.3305	-57.1252	-129.468	22.1475	-60.7118	-100.208	42.5775	-57.4775	-148.151	6.19211	-28.5212	-134.073	23.6936	-7.87654	-145.727	36.4723	21.1283	-145.548	-4.14587	-13.5156	-139.737	13.0439	4.74539	-156.428	26.2885	25.9713	-195.048	-23.3435	-18.6815	-217.825	-30.5898	9.94308	-222.771	2.10079	-17.4825	
